<svg xmlns="http://www.w3.org/2000/svg" version="1.1" xmlns:xlink="http://www.w3.org/1999/xlink" xmlns:svgjs="http://svgjs.com/svgjs" width="512" height="512" x="0" y="0" viewBox="0 0 512.068 512.068" style="enable-background:new 0 0 512 512" xml:space="preserve" class=""><g><ellipse cx="256.241" cy="256.807" fill="#f9f86d" rx="245.828" ry="245.782" data-original="#fff08a" class=""></ellipse><path fill="#ff7d97" d="M387.302 269.923v21.39c0 11.148-1.389 21.962-4.009 32.292-7.161 28.304-23.522 52.954-45.714 70.563C315.18 411.954 286.831 422.58 256 422.58s-59.179-10.626-81.579-28.412c-22.192-17.609-38.553-42.259-45.714-70.563a131.178 131.178 0 0 1-4.009-32.292v-21.39z" data-original="#ff7d97"></path><path fill="#faf7f5" d="M387.302 269.923v21.724c-.044 17.705-14.593 31.958-32.301 31.958H157c-17.708 0-32.257-14.253-32.301-31.958l-.001-.334v-21.39z" data-original="#faf7f5"></path><path fill="#ff9eb1" d="M337.579 394.169c-22.399 17.786-50.748 28.412-81.579 28.412s-59.179-10.626-81.579-28.412c19.454-23.38 48.778-38.26 81.579-38.26s62.125 14.88 81.579 38.26z" data-original="#ff9eb1" class=""></path><path d="M467.271 111.437c-3.125-4.554-9.351-5.71-13.904-2.585-4.554 3.125-5.711 9.35-2.586 13.904 64.214 93.553 52.479 219.784-27.902 300.15-92.015 91.999-241.737 92-333.756 0C44.548 378.34 20 319.087 20 256.061S44.548 133.783 89.122 89.217C169.423 8.93 295.599-2.859 389.143 61.189c4.556 3.118 10.779 1.956 13.9-2.602 3.12-4.557 1.955-10.781-2.602-13.9-101.477-69.482-238.354-56.703-325.46 30.387C26.629 123.417 0 187.693 0 256.061s26.629 132.644 74.981 180.987C123.334 485.391 187.62 512.015 256 512.015s132.667-26.624 181.019-74.967c87.194-87.177 99.917-224.116 30.252-325.611z" fill="#310101" data-original="#000000" class=""></path><path d="M420.13 88.27c1.6 3.904 5.672 6.447 9.887 6.157 4.112-.284 7.712-3.133 8.913-7.077 1.2-3.94-.227-8.324-3.484-10.834-3.398-2.619-8.247-2.737-11.772-.292-3.822 2.651-5.335 7.747-3.544 12.046zM119.013 326.059c7.533 29.777 25.001 56.745 49.184 75.937a.027.027 0 0 0 .006.005c25.195 20.006 55.555 30.581 87.797 30.581s62.602-10.575 87.798-30.581l.006-.005c24.183-19.191 41.649-46.159 49.182-75.931 2.803-11.053 4.244-22.49 4.304-34.006.002-.137.011-.273.011-.411v-21.725c0-5.523-4.478-10-10-10H124.698c-5.522 0-10 4.477-10 10v21.75c0 .147.01.292.012.439.065 11.498 1.505 22.917 4.303 33.947zM256 412.581c-24.028 0-46.837-6.839-66.58-19.875 17.818-17.144 41.55-26.797 66.58-26.797 25.031 0 48.763 9.654 66.581 26.797-19.744 13.036-42.553 19.875-66.581 19.875zm82.429-32.328c-21.731-21.938-51.243-34.345-82.429-34.345-31.185 0-60.697 12.407-82.428 34.345-14.697-13.643-25.893-30.826-32.372-49.706a42.242 42.242 0 0 0 15.801 3.059h198a42.242 42.242 0 0 0 15.801-3.059c-6.479 18.879-17.676 36.063-32.373 49.706zM134.698 279.924h242.604v11.39c0 .228-.009.455-.01.683-.233 11.949-10.15 21.61-22.291 21.61H157c-12.13 0-22.042-9.645-22.29-21.557-.001-.245-.011-.49-.011-.736v-11.39zM362.345 185.64a81.523 81.523 0 0 0-28.415 5.938c5.927-12.213 15.818-22.391 28.317-28.534 4.957-2.436 7.001-8.429 4.564-13.385-2.436-4.957-8.43-7.001-13.385-4.564-25.789 12.673-43.193 38.323-45.42 66.938a10.002 10.002 0 0 0 16.471 8.375c21.745-18.602 54.116-19.666 76.973-2.529 4.42 3.314 10.688 2.416 14-2.002 3.313-4.419 2.417-10.687-2.002-14-14.608-10.953-32.755-16.721-51.103-16.237zM98.553 201.876c-4.419 3.313-5.314 9.581-2.002 14 3.313 4.418 9.579 5.315 14 2.002 22.855-17.137 55.227-16.073 76.972 2.529a10 10 0 0 0 16.471-8.375c-2.227-28.616-19.631-54.265-45.42-66.938-4.958-2.436-10.949-.392-13.385 4.564-2.437 4.957-.393 10.95 4.564 13.386 12.499 6.142 22.391 16.32 28.317 28.534a81.518 81.518 0 0 0-28.415-5.938c-18.333-.489-36.494 5.284-51.102 16.236z" fill="#310101" data-original="#000000" class=""></path></g></svg>